# xmcd
#
# Track frame offsets:
# 150
# 21313
# 48132
# 66403
# 99500
# 121131
# 145270
# 167753
# 192043
# 210827
# 232947
#
# Disc length: 3477 seconds
#
#
# Revision: 3
# Processed by: cddbd v1.5.2PL0 Copyright (c) Steve Scherf et al.
# Submitted via: FreeRIP 2.951 
#
DISCID=8b0d930b
DTITLE=Gulshan Kumar - Koi Yahaan aha Nache Nache Remix
DYEAR=2003
DGENRE=Remix
TTITLE0=Koi Yahaan Aha Nache Nache
TTITLE1=Rambha Ho
TTITLE2=Do Ghoont Mujhe
TTITLE3=Medley-Aap Jaisa Koi/Laila Mein Laila
TTITLE4=Jalta Hai Jiya Mera
TTITLE5=Hum Tum Gum Sum
TTITLE6=Duniya Mein
TTITLE7=Raat Akeli Hai
TTITLE8=Dum Maro Dum
TTITLE9=Dil Lena Khel Hai
TTITLE10=Pyar Do Pyar Lo
EXTD=
EXTT0=
EXTT1=
EXTT2=
EXTT3=
EXTT4=
EXTT5=
EXTT6=
EXTT7=
EXTT8=
EXTT9=
EXTT10=
PLAYORDER=
